# xmcd
#
# Track frame offsets:
#	150
#	17005
#	32759
#	47523
#	67318
#	82822
#	96521
#	115369
#	134209
#	150639
#	174153
#	195034
#
# Disc length: 2982 seconds
#
# Revision: 1
# Processed by: cddbd v1.5.2PL0 Copyright (c) Steve Scherf et al.
# Submitted via: EZCDAudioConverter 2.2.2.1
#
DISCID=990ba40c
DTITLE=Various Artist - Καινουργια βήματα σε παλιά μονοπάτια
DYEAR=2006
DGENRE=National Folk
TTITLE0=Μπάσης Δημήτρης - Δύο καρδιές
TTITLE1=Κιάμος Πάνος - Βρε πως τα μπαλώνεις
TTITLE2=Γλυκερία - Εγώ δεν κλαίω για τα βουνά
TTITLE3=Κλωναρίδης Ηλίας - Κελάρια και φτερόλακα
TTITLE4=Μίλλη Εύα - Είσαι ο άντρας της ζωής μου
TTITLE5=Γλυκερία - Ξενιτιά
TTITLE6=Κλωναρίδης Ηλίας - Τα σίδερα της φυλακής
TTITLE7=Κάβουρας Στάθης - Σταυραετός
TTITLE8=Σαλέας Σαράντης - Στου Κορυδαλλού την μάντρα
TTITLE9=Κόρου Κατερίνα - Νύχτα με νύχτα
TTITLE10=Κάβουρας Στάθης - Λιάκουρα (κλέφτικο)
TTITLE11=Σαλέας-Ζέρβας-Ανδρεάδης - Ορχηστρικό
EXTD=
EXTT0=
EXTT1=
EXTT2=
EXTT3=
EXTT4=
EXTT5=
EXTT6=
EXTT7=
EXTT8=
EXTT9=
EXTT10=
EXTT11=
PLAYORDER=
